<svg width="825" height="163" viewBox="0 0 825 163" fill="none" xmlns="http://www.w3.org/2000/svg">
<path d="M184.426 162.375C172.418 162.375 163.922 155.918 158.937 143.003C156.332 136.546 155.029 129.296 155.029 121.253C155.029 113.663 156.219 105.336 158.598 96.2733C162.562 80.7532 169.643 66.536 179.838 53.6215C192.186 37.8749 205.328 30.0016 219.262 30.0016C231.383 30.0016 239.936 36.6854 244.921 50.053L226.059 70.2744C224.02 67.2157 221.017 65.6864 217.053 65.6864C209.349 65.6864 202.099 71.0107 195.302 81.6595C190.204 89.7027 186.409 98.5956 183.917 108.338C182.897 112.19 182.387 115.645 182.387 118.704C182.387 123.348 183.577 127.087 185.956 129.919C188.561 133.091 192.186 134.677 196.831 134.677C202.156 134.677 207.083 132.241 211.615 127.37C215.24 123.518 218.185 118.647 220.451 112.756C212.068 114.455 204.308 116.211 197.171 118.024L202.609 92.8747L247.639 83.3588C247.866 90.7223 246.28 99.162 242.881 108.678C239.823 117.061 236.028 124.764 231.496 131.788C218.242 152.179 202.552 162.375 184.426 162.375Z" fill="black"/>
<path d="M315.026 25.4136C327.034 25.4136 335.53 32.0974 340.515 45.465C343.12 52.3754 344.423 59.9655 344.423 68.2353C344.423 76.1652 343.234 84.7749 340.855 94.0642C336.663 109.924 329.413 124.538 319.104 137.905C306.529 154.218 293.218 162.375 279.171 162.375C267.05 162.375 258.44 155.691 253.342 142.324C250.85 135.753 249.604 128.39 249.604 120.233C249.604 112.19 250.85 103.467 253.342 94.0642C257.534 78.091 264.727 63.4207 274.923 50.053C287.498 33.6267 300.865 25.4136 315.026 25.4136ZM308.908 67.5556C302.678 67.5556 296.334 72.6534 289.877 82.849C284.665 90.8922 281.04 98.7655 279.001 106.469C277.982 110.547 277.472 114.229 277.472 117.514C277.472 122.159 278.605 125.954 280.87 128.899C283.476 132.185 287.101 133.827 291.746 133.827C298.09 133.827 303.811 130.485 308.908 123.801C312.987 118.477 315.932 112.19 317.745 104.94C319.897 96.4432 320.35 88.0601 319.104 79.7903C317.745 71.6338 314.346 67.5556 308.908 67.5556Z" fill="black"/>
<path d="M426.593 31.1911L425.574 62.7976C417.644 63.2507 410.11 63.8172 402.973 64.4969C395.497 95.8768 390.455 124.708 387.85 150.99L359.132 158.467L374.765 68.0653C371.707 68.5185 368.648 69.0283 365.589 69.5947L356.583 71.294L354.544 39.5175L426.593 31.1911Z" fill="black"/>
<path d="M436.374 38.1581C454.16 32.8337 468.717 30.1715 480.046 30.1715C495.339 30.1715 502.929 35.4959 502.816 46.1447C502.703 61.4382 493.073 76.7883 473.928 92.195C475.514 96.4998 482.085 110.037 493.64 132.808C487.749 138.245 478.856 146.232 466.961 156.767L448.779 109.867H448.609C445.89 124.708 443.851 138.415 442.492 150.99L415.643 158.467C415.87 155.974 417.116 148.441 419.382 135.866L436.374 38.1581ZM457.785 65.0066C456.766 68.8583 455.859 72.71 455.066 76.5617L452.687 88.1168C456.652 86.0776 460.561 83.4154 464.412 80.1302C468.83 76.2785 471.776 72.5967 473.249 69.0849C473.815 68.0653 474.098 67.1024 474.098 66.1961C474.098 63.7039 472.456 62.4577 469.17 62.4577C466.565 62.4577 462.77 63.3074 457.785 65.0066Z" fill="black"/>
<path d="M483.879 160.506C500.532 118.024 514.013 77.0715 524.322 37.6483L575.98 28.982C570.089 63.3074 567.427 103.92 567.993 150.82L531.969 159.146L534.518 137.905L523.132 140.115L519.564 155.068L483.879 160.506ZM537.236 115.135L545.053 50.9027H544.883L528.91 116.665L537.236 115.135Z" fill="black"/>
<path d="M701.311 31.8708C686.018 72.4268 674.633 111.963 667.156 150.48L629.092 156.937L635.38 94.574L619.576 152.349L583.382 158.976C588.82 116.381 591.482 77.2981 591.368 41.7266L623.655 35.6092L617.027 110.037L639.118 27.4527L656.451 24.9038L644.726 129.749L668.346 36.9686L701.311 31.8708Z" fill="black"/>
<path d="M732.333 63.6472C731.427 66.9325 730.634 70.1611 729.954 73.3331L728.085 82.6791L755.274 76.9016L753.744 100.352C740.83 102.617 730.691 104.6 723.327 106.299C722.874 108.565 722.478 110.83 722.138 113.096L720.948 119.723L752.555 115.135L750.346 146.742C734.033 148.101 713.358 152.009 688.322 158.467L708.544 36.6288L765.129 28.4723L762.92 59.9088C751.818 60.9284 741.623 62.1745 732.333 63.6472Z" fill="black"/>
<path d="M784.426 38.3281L813.654 32.8904C805.497 64.2703 799.21 93.2146 794.792 119.723L824.699 115.135L822.15 146.742C806.743 148.101 787.202 152.009 763.525 158.467L784.426 38.3281Z" fill="black"/>
<path d="M2 79.012L120.518 39.506L81.012 158.024L56.3207 113.58L73.1108 86.9132L46.4442 103.703L2 79.012Z" fill="black" stroke="black" stroke-width="4" stroke-linejoin="round"/>
</svg>
